<?xml version="1.0" encoding="UTF-8"?>
<svg version="1.1" xmlns="http://www.w3.org/2000/svg" width="864" height="576">
<path d="M0 0 C1.22021851 0.01160156 1.22021851 0.01160156 2.46508789 0.0234375 C13.78374419 0.50904606 24.48487461 4.31176902 35.21240234 7.67919922 C41.15309303 9.51739987 47.1400059 11.18796581 53.125 12.875 C67.93670733 17.09929975 82.73101936 21.38339252 97.4921875 25.78125 C109.5260178 29.36614482 121.57277386 32.87891271 133.67163086 36.23828125 C141.74805817 38.48439203 149.79582601 40.82000361 157.83862305 43.18334961 C165.16718273 45.33059774 172.51639772 47.39584858 179.875 49.4375 C186.65718977 51.32149913 193.41797656 53.23772059 200.125 55.375 C208.64440153 58.08571867 217.23572432 60.51850121 225.83789062 62.95166016 C231.51972586 64.56212246 237.1970026 66.18856893 242.875 67.8125 C252.69442984 70.62129207 252.69442984 70.62129207 262.51953125 73.41015625 C271.60908065 75.98444256 280.65986729 78.65322847 289.6875 81.4375 C296.19405334 83.44329992 302.69128254 85.34820977 309.3125 86.9375 C314.99192547 88.3083958 320.54478916 89.89946024 326.10986328 91.67626953 C341.47673181 96.57122765 356.95369663 101.1416539 372.57299805 105.16015625 C377.95340641 106.54941088 383.26200231 108.10079959 388.55859375 109.78515625 C391.06568802 110.5617944 393.56959173 111.29438763 396.09765625 111.99609375 C404.13363055 114.24235962 411.59393689 116.60844636 418.875 120.8125 C418.875 120.1525 418.875 119.4925 418.875 118.8125 C425.3927064 114.76371373 431.72331698 112.42302412 439.125 110.5 C440.19548584 110.2107666 441.26597168 109.9215332 442.36889648 109.62353516 C444.66576317 109.003082 446.96390444 108.38733133 449.26318359 107.77587891 C455.49708668 106.11311146 461.71710887 104.40000451 467.9375 102.6875 C469.17532227 102.34759033 470.41314453 102.00768066 471.68847656 101.6574707 C479.18970526 99.58731331 486.62510702 97.38810608 494.03515625 95.015625 C505.27114325 91.44902116 516.68650666 88.42100462 528.03955078 85.25341797 C540.33489143 81.82247058 552.59887607 78.29579339 564.84716797 74.70068359 C570.06335173 73.17056938 575.28162056 71.64760625 580.5 70.125 C581.51078613 69.82996582 582.52157227 69.53493164 583.56298828 69.23095703 C589.87825346 67.38939684 596.19984579 65.57250739 602.52734375 63.7734375 C606.48208863 62.63823652 610.42880506 61.47700838 614.375 60.3125 C619.38991275 58.83261672 624.40806499 57.36749732 629.4375 55.9375 C635.57006937 54.19229035 641.692144 52.41254687 647.8125 50.625 C657.24852385 47.86991819 666.68550856 45.11817888 676.125 42.375 C676.77741669 42.18533661 677.42983337 41.99567322 678.10202026 41.80026245 C688.6764313 38.72728848 699.26521363 35.70676504 709.8581543 32.69824219 C718.19593298 30.31925157 726.48730557 27.80761666 734.77172852 25.25 C741.52642649 23.18098268 748.31956155 21.33933198 755.16186523 19.58520508 C761.4945543 17.94898534 767.71534581 16.04147911 773.9453125 14.0546875 C778.60129745 12.57208126 783.28128591 11.17422421 787.98168945 9.83911133 C792.13444202 8.65333932 796.22127435 7.36033409 800.30078125 5.94140625 C816.00825556 0.6655024 830.38134143 -0.02432144 846.875 0.8125 C846.875 1.4725 846.875 2.1325 846.875 2.8125 C847.535 2.8125 848.195 2.8125 848.875 2.8125 C850.58506472 6.23262943 850.0186006 10.15455022 850.0148077 13.91808891 C850.01775912 14.87819447 850.02071055 15.83830002 850.02375141 16.82749969 C850.03249223 20.081531 850.03402755 23.33552697 850.03562927 26.58956909 C850.04035682 28.93133191 850.04550726 31.2730939 850.05104691 33.61485493 C850.06352915 39.39945118 850.07125155 45.18404041 850.07694569 50.96864703 C850.08399483 57.89392841 850.09675304 64.81919637 850.10949489 71.74446919 C850.14137103 89.27931617 850.16118354 106.81417204 850.17878041 124.3490383 C850.1835465 129.09624782 850.18855543 133.84345706 850.19358563 138.59066629 C850.22462672 168.04161463 850.2512526 197.4925652 850.26800442 226.94352531 C850.27194184 233.76882812 850.27595365 240.59413087 850.2800293 247.41943359 C850.2807818 248.69140636 850.2807818 248.69140636 850.2815495 249.98907554 C850.29797598 277.49682226 850.336444 305.00448016 850.3873164 332.51218317 C850.43949306 360.77649786 850.47231234 389.04076524 850.47958195 417.30512908 C850.48061061 421.29391551 850.48184694 425.28270186 850.48320198 429.27148819 C850.48358904 430.44908836 850.48358904 430.44908836 850.48398391 431.65047843 C850.48868603 444.30466096 850.51365021 456.95872673 850.54595341 469.61286549 C850.57792649 482.32259661 850.58798478 495.03219573 850.57552146 507.7419623 C850.56936192 514.63255911 850.57294129 521.52282042 850.6036911 528.4133606 C850.63086588 534.71376958 850.63069715 541.01354668 850.60818065 547.31396855 C850.60493318 549.6006497 850.61196706 551.88737176 850.62997787 554.17398427 C850.65288661 557.26851664 850.63928909 560.36075046 850.61608028 563.45522881 C850.63155652 564.35541727 850.64703275 565.25560573 850.66297796 566.18307263 C850.62354437 568.5440907 850.53313993 570.54478616 849.875 572.8125 C844.68836617 577.45052344 840.43558627 577.40729497 833.75 577.19140625 C826.90311862 576.52190273 820.45105769 574.73303677 813.875 572.8125 C812.97958496 572.5551709 812.08416992 572.2978418 811.16162109 572.03271484 C806.07872331 570.57177756 801.00206378 569.09079588 795.9296875 567.59375 C790.56568213 566.01142758 785.19214613 564.46566983 779.8125 562.9375 C770.40400421 560.26147179 761.01255899 557.52768855 751.621521 554.79119873 C741.5427182 551.85606984 731.4425335 549.00479974 721.32666016 546.19995117 C715.68362276 544.62659817 710.07826657 542.97650202 704.5 541.1875 C698.83073483 539.37664912 693.13824548 537.79552769 687.375 536.3125 C681.11005205 534.69810457 674.92923793 532.94259258 668.76635742 530.96655273 C656.22115132 526.97785941 643.52479146 523.45341802 630.875 519.8125 C629.86646973 519.52197754 628.85793945 519.23145508 627.81884766 518.93212891 C619.75404578 516.61125015 611.68382847 514.31181659 603.59765625 512.06640625 C584.5441205 506.77312349 584.5441205 506.77312349 576.625 504.25 C568.10559847 501.53928133 559.51427568 499.10649879 550.91210938 496.67333984 C545.23027351 495.06287736 539.55305613 493.43622752 533.875 491.8125 C531.4635542 491.12365402 529.05209605 490.43485132 526.640625 489.74609375 C522.60885866 488.59424082 518.57748172 487.44106013 514.546875 486.28515625 C512.9062779 485.8150068 511.26565333 485.34495319 509.625 484.875 C508.81272949 484.64224365 508.00045898 484.4094873 507.16357422 484.16967773 C501.87190705 482.65741265 496.57435827 481.16696816 491.2734375 479.6875 C478.04846657 475.99367398 464.84292996 472.27155839 451.72705078 468.20214844 C447.40511776 466.86592137 443.08185638 465.57745655 438.7109375 464.41015625 C437.48383057 464.08192871 437.48383057 464.08192871 436.23193359 463.74707031 C434.72944504 463.35051543 433.22472742 462.96224791 431.71728516 462.58496094 C426.91335885 461.32070898 423.10397962 459.42807984 418.875 456.8125 C418.38193359 457.19849365 417.88886719 457.5844873 417.38085938 457.98217773 C410.80061397 462.77990183 404.19344393 464.83288094 396.375 466.875 C393.87358091 467.55816546 391.37227838 468.24175787 388.87109375 468.92578125 C387.6682373 469.24885254 386.46538086 469.57192383 385.22607422 469.90478516 C380.94487299 471.0644461 376.68870438 472.29801055 372.4375 473.5625 C370.67599609 474.08070313 370.67599609 474.08070313 368.87890625 474.609375 C366.5916044 475.28894227 364.31263834 475.98896037 362.03588867 476.70336914 C352.53443862 479.67623322 342.94483933 482.22200035 333.31054688 484.72460938 C326.22657072 486.58649424 319.21798491 488.60696391 312.23899841 490.8260498 C303.25935885 493.66618557 294.1866817 496.18684329 285.125 498.75 C272.7823684 502.24445126 260.4648633 505.80312432 248.18652344 509.51782227 C244.42593741 510.65315806 240.65509033 511.74393881 236.875 512.8125 C231.33608978 514.38023833 225.8229832 516.02342744 220.3125 517.6875 C212.55995506 520.02607152 204.78747913 522.28377916 196.99804688 524.49609375 C190.4274351 526.36378413 183.86820601 528.26819182 177.3125 530.1875 C167.64939511 533.01426535 157.97251819 535.79021935 148.28955078 538.5480957 C141.36424415 540.52306271 134.44356678 542.51301522 127.52734375 544.51953125 C126.72255585 544.7530127 125.91776794 544.98649414 125.08859253 545.22705078 C121.79943615 546.18148345 118.51033545 547.13610769 115.22131348 548.09100342 C104.24516706 551.27636563 93.26137587 554.42629973 82.23754883 557.44360352 C76.89181154 558.91888021 71.59251045 560.51342326 66.3046875 562.18359375 C58.29314863 564.71200722 50.23467549 567.05629705 42.15380859 569.35229492 C39.84789753 570.00770333 37.54304207 570.66673124 35.23828125 571.32617188 C33.7422475 571.75281461 32.24615586 572.17925443 30.75 572.60546875 C30.07590088 572.7981987 29.40180176 572.99092865 28.70727539 573.1894989 C26.76570235 573.74015702 24.82150289 574.27954336 22.875 574.8125 C22.19430954 575.00097 21.51361908 575.18944 20.81230164 575.38362122 C14.67330725 577.01398306 8.99556332 577.14426715 2.6875 577.125 C1.08745117 577.14916992 1.08745117 577.14916992 -0.54492188 577.17382812 C-2.09083008 577.17479492 -2.09083008 577.17479492 -3.66796875 577.17578125 C-5.0605188 577.18025269 -5.0605188 577.18025269 -6.48120117 577.18481445 C-9.90916877 576.70206899 -11.48217555 576.09810735 -14.125 573.8125 C-14.90661554 570.75644165 -14.79674845 567.72609384 -14.75699902 564.58665657 C-14.76456582 563.62569677 -14.77213262 562.66473696 -14.77992871 561.67465717 C-14.79932705 558.4233586 -14.78278053 555.17320839 -14.76664734 551.92190552 C-14.77311852 549.57998639 -14.78176853 547.23807243 -14.79242164 544.89616859 C-14.81293483 539.11494079 -14.81000453 533.3340498 -14.79735772 527.55280708 C-14.78349981 520.63078863 -14.79854347 513.70891104 -14.81448474 506.78690791 C-14.84473181 493.22316975 -14.84610499 479.65954222 -14.83513172 466.09578148 C-14.82555472 454.22490087 -14.82481967 442.35406279 -14.83301735 430.483181 C-14.83408313 428.8927213 -14.83514868 427.30226161 -14.83621398 425.71180191 C-14.837835 423.31530796 -14.83946729 420.91881402 -14.841127 418.5223201 C-14.8563912 396.23192744 -14.86187637 373.94154911 -14.84652996 351.65115547 C-14.84595119 350.81031498 -14.84537242 349.9694745 -14.84477612 349.103154 C-14.84001109 342.27432589 -14.83495329 335.445498 -14.82987839 328.61667012 C-14.81028575 301.97795266 -14.81948568 275.33938678 -14.85229492 248.70068359 C-14.88905447 218.79098369 -14.90617847 188.88137256 -14.89288265 158.97165 C-14.89152509 155.7842502 -14.89022503 152.59685037 -14.88895607 149.40945053 C-14.88862811 148.62459767 -14.88830014 147.83974482 -14.88796224 147.03110854 C-14.88337926 135.16762173 -14.89403982 123.30421056 -14.91220665 111.44073868 C-14.93280555 97.95276773 -14.93229738 84.46498599 -14.90357425 70.97702588 C-14.88946825 64.09036759 -14.88493238 57.20403157 -14.90752411 50.31738663 C-14.92721125 44.01940082 -14.91945648 37.72208209 -14.88932977 31.42414306 C-14.88329573 29.13950571 -14.88750194 26.85481494 -14.902693 24.57022013 C-14.92177606 21.47600649 -14.90428589 18.38412887 -14.87725353 15.29002571 C-14.89158638 14.39275011 -14.90591922 13.49547451 -14.92068639 12.57100874 C-14.81612282 6.73092155 -14.81612282 6.73092155 -12.87123016 4.14638625 C-8.8908742 0.62640918 -5.13645393 -0.07962637 0 0 Z " fill="#FF914D" transform="translate(14.125,-0.8124999999999999)"/>
<path d="M0 0 C3.61926742 2.53995017 5.93850859 4.68831254 7.6875 8.78515625 C7.938733 10.73792939 7.938733 10.73792939 7.94049966 12.82615978 C7.94601915 13.6274685 7.95153864 14.42877723 7.95722538 15.25436804 C7.95105943 16.56881562 7.95105943 16.56881562 7.94476891 17.9098177 C7.94827498 18.84769492 7.95178105 19.78557214 7.95539337 20.75186989 C7.96475312 23.91832228 7.95977227 27.08459259 7.95492554 30.25105286 C7.95865949 32.53465716 7.96325999 34.81826019 7.96865618 37.10186118 C7.98093309 43.39579593 7.98062021 49.68967771 7.97826743 55.98362172 C7.97693317 62.0684674 7.98687297 68.15330016 7.99549321 74.23813818 C8.01485452 88.22545098 8.02046223 102.21274914 8.02160732 116.20007376 C8.02252574 127.00036083 8.02663891 137.80064215 8.03300858 148.60092735 C8.03480361 151.70764324 8.03658324 154.81435914 8.03835833 157.92107505 C8.03902148 159.0795223 8.03902148 159.0795223 8.03969802 160.26137253 C8.0520098 181.99054375 8.0598988 203.71971297 8.05901146 225.44888783 C8.05896472 226.67823381 8.05896472 226.67823381 8.05891704 227.93241507 C8.05875082 232.08648433 8.05855274 236.24055358 8.05834763 240.39462284 C8.05830774 241.21966367 8.05826785 242.04470451 8.05822675 242.89474658 C8.05814587 244.56318096 8.05806228 246.23161533 8.05797596 247.90004971 C8.05675033 273.8608791 8.07176459 299.82165626 8.09912109 325.7824707 C8.12982983 354.93663983 8.14705432 384.09077464 8.14519465 413.24496096 C8.14504538 416.35261993 8.14494797 419.46027889 8.14488602 422.56793785 C8.14486271 423.33314525 8.1448394 424.09835266 8.14481538 424.88674817 C8.14475379 437.21103344 8.15753582 449.53527344 8.17475055 461.85954524 C8.19168899 474.24197181 8.19369493 486.624332 8.1805319 499.00676373 C8.17378314 505.71742987 8.17395525 512.4279114 8.1912384 519.13857269 C8.20688802 525.2779669 8.20418867 531.41706524 8.18667014 537.55645188 C8.18358231 539.7812079 8.18729912 542.00598557 8.19839029 544.23071609 C8.21244242 547.24849588 8.20197886 550.26522795 8.18527794 553.28297138 C8.1952143 554.15224627 8.20515066 555.02152116 8.21538812 555.91713771 C8.14763224 561.68481133 6.99858015 565.03367025 3.6875 569.78515625 C0.29359225 572.70768792 -2.44632735 573.08063729 -6.86376953 573.01489258 C-11.91942154 572.54057867 -16.75327104 571.03657674 -21.625 569.66015625 C-22.78 569.34175781 -23.935 569.02335938 -25.125 568.6953125 C-32.4991957 566.64101381 -39.80235449 564.41458584 -47.08105469 562.04736328 C-53.4588152 559.9961231 -59.89833042 558.24532408 -66.375 556.53515625 C-76.79916932 553.77721665 -87.15884284 550.83667105 -97.5 547.78515625 C-98.22913605 547.57011444 -98.95827209 547.35507263 -99.70950317 547.1335144 C-109.50269324 544.24142792 -119.26975241 541.27084332 -129.02709961 538.26000977 C-137.26495825 535.74534194 -145.57821952 533.54046097 -153.90429688 531.33911133 C-161.02736566 529.44179063 -168.04544101 527.34073928 -175.05175781 525.05444336 C-181.74554321 522.89899883 -188.5144124 521.08072956 -195.3125 519.28515625 C-203.63950791 517.08575047 -211.86421847 514.72639298 -220.05078125 512.0546875 C-226.74494973 509.8993249 -233.51408685 508.08084325 -240.3125 506.28515625 C-247.95701468 504.26573582 -255.54178038 502.16478208 -263.0625 499.72265625 C-269.66427992 497.57907435 -276.29618584 495.6473976 -283 493.84765625 C-297.04376368 490.07693097 -310.98894085 485.98179496 -324.91796875 481.80859375 C-337.40642517 478.07263031 -349.91754632 474.49866701 -362.51586914 471.15063477 C-368.7143468 469.4993912 -374.86228947 467.75957247 -380.9765625 465.81640625 C-386.50018053 464.10887093 -392.06733476 462.55266612 -397.63012695 460.97827148 C-399.33410778 460.49523672 -401.03732658 460.0095051 -402.73974609 459.52099609 C-404.51632272 459.01287293 -406.29549038 458.51375297 -408.07666016 458.02197266 C-408.96530762 457.7697998 -409.85395508 457.51762695 -410.76953125 457.2578125 C-411.56979736 457.03488525 -412.37006348 456.81195801 -413.19458008 456.58227539 C-417.58438674 454.93008879 -419.80275644 451.54977159 -422.3125 447.78515625 C-422.56549966 445.34196728 -422.56549966 445.34196728 -422.56976891 442.37274456 C-422.5762178 441.24185144 -422.58266669 440.11095832 -422.589311 438.94579571 C-422.5862138 437.69795971 -422.5831166 436.4501237 -422.57992554 435.16447449 C-422.5836603 433.82972354 -422.58826113 432.49497478 -422.59365618 431.1602295 C-422.60592332 427.48445635 -422.60562137 423.80877396 -422.60326743 420.132985 C-422.6028602 416.1717264 -422.61388952 412.21049727 -422.62338257 408.24925232 C-422.6400142 400.48517171 -422.6454931 392.72112146 -422.64660732 384.95702454 C-422.64755684 378.64707377 -422.65166228 372.33713304 -422.65800858 366.02718544 C-422.67562738 348.14593957 -422.68484652 330.26471772 -422.68334763 312.38346311 C-422.68326772 311.41894909 -422.6831878 310.45443507 -422.68310547 309.46069336 C-422.68302371 308.49500454 -422.68294195 307.52931572 -422.68285771 306.53436361 C-422.68204477 290.88310582 -422.70118278 275.23194426 -422.7293822 259.58071431 C-422.75809406 243.51858722 -422.77192341 227.45650709 -422.77019465 211.39435369 C-422.76953013 202.37330108 -422.77504944 193.35234933 -422.79655075 184.33131981 C-422.81474031 176.6503726 -422.81912831 168.96957196 -422.8055319 161.28861257 C-422.79899075 157.36885501 -422.79892603 153.44937881 -422.8162384 149.52964783 C-422.83192421 145.94131083 -422.82915215 142.35347932 -422.81167014 138.765155 C-422.80713105 136.85200402 -422.82229292 134.93883765 -422.83814943 133.025747 C-422.78673721 126.66061017 -422.67574946 122.5864815 -418.3125 117.78515625 C-415.40083926 115.08319755 -412.72700086 114.13820345 -408.90234375 113.171875 C-407.83918945 112.89641846 -406.77603516 112.62096191 -405.68066406 112.3371582 C-404.54854492 112.05187256 -403.41642578 111.76658691 -402.25 111.47265625 C-393.41168503 109.17501237 -384.65814173 106.7606308 -375.98022461 103.91479492 C-369.84033169 101.90846056 -363.64058024 100.14087856 -357.42523193 98.38375854 C-353.44679544 97.25654445 -349.47175399 96.11742752 -345.49609375 94.98046875 C-343.72332083 94.47391094 -341.95053416 93.96740126 -340.17773438 93.4609375 C-339.28272217 93.20521973 -338.38770996 92.94950195 -337.46557617 92.68603516 C-329.40429688 90.3828125 -329.40429688 90.3828125 -326.7315979 89.61920166 C-324.95031527 89.11025214 -323.16904491 88.60125967 -321.38778687 88.09222412 C-316.83059079 86.78996032 -312.2731665 85.48850439 -307.71533203 84.18847656 C-298.57327172 81.58020199 -289.43489242 78.96158801 -280.3125 76.28515625 C-271.96586975 73.8432942 -263.61035343 71.43538242 -255.24609375 69.0546875 C-248.59366013 67.1582924 -241.95181935 65.22692398 -235.3125 63.28515625 C-226.96566188 60.84399925 -218.61035818 58.43538377 -210.24609375 56.0546875 C-203.59366013 54.1582924 -196.95181935 52.22692398 -190.3125 50.28515625 C-182.81941756 48.0936928 -175.32121487 45.92244964 -167.8125 43.78515625 C-160.51323708 41.70663571 -153.22244767 39.60080923 -145.9375 37.47265625 C-144.95539551 37.18592041 -143.97329102 36.89918457 -142.96142578 36.60375977 C-138.500724 35.30115541 -134.0401804 33.99801514 -129.58007812 32.69335938 C-125.61652943 31.53424571 -121.65227569 30.37756577 -117.6875 29.22265625 C-117.02378387 29.02925659 -116.36006775 28.83585693 -115.67623901 28.63659668 C-107.47240159 26.24881656 -99.25426637 23.93021037 -91 21.72265625 C-82.02002587 19.32008265 -73.15737517 16.59795701 -64.28637695 13.82275391 C-55.38115746 11.0600437 -46.4136854 8.59927236 -37.39550781 6.234375 C-31.98146431 4.80656837 -26.63553904 3.29342386 -21.32470703 1.51953125 C-6.5183135 -3.42431672 -6.5183135 -3.42431672 0 0 Z " fill="#5271FF" transform="translate(855.3125,1.21484375)"/>
<path d="M0 0 C1.22021851 0.01160156 1.22021851 0.01160156 2.46508789 0.0234375 C13.78374419 0.50904606 24.48487461 4.31176902 35.21240234 7.67919922 C41.15309303 9.51739987 47.1400059 11.18796581 53.125 12.875 C67.93670733 17.09929975 82.73101936 21.38339252 97.4921875 25.78125 C109.5260178 29.36614482 121.57277386 32.87891271 133.67163086 36.23828125 C141.74805817 38.48439203 149.79582601 40.82000361 157.83862305 43.18334961 C165.16718273 45.33059774 172.51639772 47.39584858 179.875 49.4375 C186.65718977 51.32149913 193.41797656 53.23772059 200.125 55.375 C208.64440153 58.08571867 217.23572432 60.51850121 225.83789062 62.95166016 C231.51972586 64.56212246 237.1970026 66.18856893 242.875 67.8125 C252.69442984 70.62129207 252.69442984 70.62129207 262.51953125 73.41015625 C271.60908065 75.98444256 280.65986729 78.65322847 289.6875 81.4375 C296.19405334 83.44329992 302.69128254 85.34820977 309.3125 86.9375 C314.99192547 88.3083958 320.54478916 89.89946024 326.10986328 91.67626953 C341.47673181 96.57122765 356.95369663 101.1416539 372.57299805 105.16015625 C377.95340641 106.54941088 383.26200231 108.10079959 388.55859375 109.78515625 C391.06568802 110.5617944 393.56959173 111.29438763 396.09765625 111.99609375 C404.13363055 114.24235962 411.59393689 116.60844636 418.875 120.8125 C418.875 120.1525 418.875 119.4925 418.875 118.8125 C425.3927064 114.76371373 431.72331698 112.42302412 439.125 110.5 C440.19548584 110.2107666 441.26597168 109.9215332 442.36889648 109.62353516 C444.66576317 109.003082 446.96390444 108.38733133 449.26318359 107.77587891 C455.49708668 106.11311146 461.71710887 104.40000451 467.9375 102.6875 C469.17532227 102.34759033 470.41314453 102.00768066 471.68847656 101.6574707 C479.18970526 99.58731331 486.62510702 97.38810608 494.03515625 95.015625 C505.27114325 91.44902116 516.68650666 88.42100462 528.03955078 85.25341797 C540.33489143 81.82247058 552.59887607 78.29579339 564.84716797 74.70068359 C570.06335173 73.17056938 575.28162056 71.64760625 580.5 70.125 C581.51078613 69.82996582 582.52157227 69.53493164 583.56298828 69.23095703 C589.87825346 67.38939684 596.19984579 65.57250739 602.52734375 63.7734375 C606.48208863 62.63823652 610.42880506 61.47700838 614.375 60.3125 C619.38991275 58.83261672 624.40806499 57.36749732 629.4375 55.9375 C635.57006937 54.19229035 641.692144 52.41254687 647.8125 50.625 C657.24852385 47.86991819 666.68550856 45.11817888 676.125 42.375 C676.77741669 42.18533661 677.42983337 41.99567322 678.10202026 41.80026245 C688.6764313 38.72728848 699.26521363 35.70676504 709.8581543 32.69824219 C718.19593298 30.31925157 726.48730557 27.80761666 734.77172852 25.25 C741.52642649 23.18098268 748.31956155 21.33933198 755.16186523 19.58520508 C761.4945543 17.94898534 767.71534581 16.04147911 773.9453125 14.0546875 C778.58947031 12.57584738 783.2605598 11.19431976 787.94213867 9.83911133 C792.28615731 8.5810237 796.61344621 7.27944539 800.93359375 5.94140625 C803.05988404 5.29423207 805.18618606 4.64709646 807.3125 4 C808.80426758 3.52844482 808.80426758 3.52844482 810.32617188 3.04736328 C816.6638873 1.13862992 822.26200969 0.39641192 828.875 0.8125 C820.04934408 5.49751623 809.92472617 7.68852466 800.3125 10.1875 C792.52211875 12.24578558 784.78864986 14.38443738 777.125 16.875 C770.52327751 19.01875625 763.89129537 20.95021988 757.1875 22.75 C742.48450703 26.69858929 727.87447117 30.95237252 713.32714844 35.44042969 C702.94482403 38.64299124 692.52013401 41.59232286 682.00439453 44.328125 C676.90337893 45.66790007 671.88387367 47.10761935 666.890625 48.80859375 C660.76702514 50.89372268 654.57088519 52.5604712 648.3125 54.1875 C640.60424933 56.22380658 632.95404365 58.33692879 625.375 60.8125 C616.82851038 63.6019339 608.17877567 65.91161808 599.48828125 68.20703125 C593.05864753 69.91808266 586.69980963 71.74860749 580.375 73.8125 C572.95793823 76.23070299 565.4780012 78.31361596 557.9375 80.3125 C550.48460453 82.28826222 543.05906075 84.30122066 535.6875 86.5625 C525.71171366 89.61830917 515.6692317 92.42965424 505.625 95.25 C491.95840156 99.08932957 478.30887448 102.97692785 464.69042969 106.984375 C459.48279273 108.51613918 454.27271161 110.03952125 449.0625 111.5625 C448.10158447 111.84448242 447.14066895 112.12646484 446.15063477 112.41699219 C440.5175906 114.06424801 434.87259054 115.62442752 429.18701172 117.08129883 C425.35771656 118.29235891 422.87475462 120.20006407 420.76963639 123.59526545 C419.67223686 126.31502085 419.62428941 128.41803385 419.62331772 131.35075283 C419.61810222 132.4842537 419.61288673 133.61775456 419.60751319 134.78560394 C419.61197463 136.03120922 419.61643608 137.27681451 419.62103271 138.56016541 C419.61872873 139.89649121 419.61555263 141.23281575 419.61157823 142.56913763 C419.60321287 146.24459145 419.60736338 149.91994169 419.61355066 153.59539592 C419.61806709 157.55797401 419.61109539 161.52053401 419.60559082 165.48310852 C419.59668626 173.2473926 419.59862363 181.01163806 419.6044161 188.77592366 C419.60892874 195.0853812 419.60954722 201.39482789 419.60736847 207.70428658 C419.60690877 209.05013378 419.60690877 209.05013378 419.60643978 210.42316981 C419.60580035 212.24576302 419.60515192 214.06835623 419.6044946 215.89094944 C419.59878811 232.99155626 419.60535403 250.09214166 419.61609533 267.19274498 C419.62502961 281.87093903 419.62348044 296.54910144 419.61425781 311.22729492 C419.60355818 328.26422238 419.59933907 345.30113104 419.60548234 362.33806139 C419.60611945 364.15434015 419.60674819 365.9706189 419.60736847 367.78689766 C419.60767702 368.68058587 419.60798557 369.57427409 419.60830347 370.49504377 C419.61003145 376.79757768 419.60711307 383.10009969 419.60240936 389.40263176 C419.59680388 397.08245579 419.59830991 404.76223892 419.60897085 412.44205826 C419.61423228 416.36161912 419.61627632 420.28111177 419.60967255 424.20067215 C419.60372062 427.78755842 419.60697564 431.37431313 419.61762765 434.96118743 C419.62092618 436.8760093 419.61438387 438.79084027 419.60751319 440.70565265 C419.61272868 441.84176127 419.61794418 442.97786988 419.62331772 444.14840603 C419.62364242 445.12857423 419.62396713 446.10874244 419.62430167 447.11861271 C419.89621205 450.04043478 420.58234174 452.18563906 421.875 454.8125 C424.92637738 456.91254794 428.56050514 457.68572861 432.09765625 458.6953125 C433.34482422 459.05391357 434.59199219 459.41251465 435.87695312 459.78198242 C437.23045468 460.1672044 438.58397066 460.55237567 439.9375 460.9375 C442.76221082 461.74698751 445.58618067 462.55904556 448.41015625 463.37109375 C449.12362213 463.57585831 449.83708801 463.78062286 450.57217407 463.99159241 C456.23908597 465.62086482 461.88935746 467.30270468 467.53686523 468.99804688 C477.88716614 472.10472682 488.25973977 474.99886898 498.73193359 477.66479492 C505.50993944 479.40820188 512.16818184 481.41040075 518.82543945 483.56518555 C526.28572712 485.97367418 533.81233407 488.11418821 541.35546875 490.24609375 C547.20558227 491.90000306 553.04057899 493.604192 558.875 495.3125 C566.36800697 497.504218 573.86628849 499.67520221 581.375 501.8125 C588.52840024 503.84952546 595.67352893 505.91297043 602.8125 508 C613.70339948 511.18376135 624.600826 514.34470896 635.5 517.5 C636.30847382 517.73415619 637.11694763 517.96831238 637.94992065 518.20956421 C645.66369662 520.44353898 653.37825825 522.67413969 661.1015625 524.875 C665.77603458 526.20791544 670.44453652 527.55953008 675.109375 528.92578125 C687.58371745 532.57799334 700.05880096 536.17373603 712.625 539.5 C720.57786759 541.60918951 728.44312281 543.86515053 736.26904297 546.40307617 C743.88501451 548.85732581 751.5639441 551.09004261 759.25 553.3125 C759.92397827 553.50743042 760.59795654 553.70236084 761.2923584 553.90319824 C770.28152604 556.5008838 779.27619019 559.079512 788.27661133 561.63793945 C792.88043311 562.94856304 797.47780547 564.2791245 802.0703125 565.62890625 C803.13000244 565.94005371 804.18969238 566.25120117 805.28149414 566.57177734 C807.30735542 567.16760968 809.33263667 567.76541974 811.35717773 568.36572266 C826.90154897 573.90024351 826.90154897 573.90024351 842.6875 572.6875 C845.86541762 569.96357061 847.58353949 566.97850142 848.15009486 562.76812065 C848.26136308 560.32032966 848.27426381 557.8892338 848.25531673 555.43894958 C848.26230661 554.02822282 848.26230661 554.02822282 848.2694377 552.58899653 C848.28142445 549.4256452 848.27197792 546.26272044 848.26268005 543.09936523 C848.26685134 540.81332099 848.27232772 538.52727881 848.27899987 536.2412405 C848.29349987 529.94986735 848.28919552 523.65862468 848.28183305 517.36724424 C848.27759933 511.28211385 848.28740285 505.19702049 848.29674067 499.11189857 C848.31641993 485.89597653 848.31875263 472.68009367 848.31354547 459.46416047 C848.3089908 447.89878027 848.30958436 436.33341559 848.31538582 424.76803589 C848.31614268 423.21752594 848.31689866 421.66701599 848.31765376 420.11650604 C848.31879894 417.7801246 848.31994881 415.44374316 848.32111301 413.10736173 C848.33181996 391.38247112 848.33654118 369.65758568 848.32864285 347.93269348 C848.32834567 347.1135363 848.3280485 346.29437913 848.32774232 345.450399 C848.3252933 338.7979707 848.32268176 332.14554246 848.32005819 325.49311422 C848.30995377 299.53867918 848.31831405 273.58430883 848.34155273 247.62988281 C848.3676111 218.47900163 848.3804772 189.32815939 848.37336498 160.17726612 C848.3726489 157.07049879 848.37197452 153.96373146 848.37132454 150.85696411 C848.37106983 149.70949137 848.37106983 149.70949137 848.37080997 148.53883737 C848.36850482 136.97988685 848.37649417 125.42097244 848.38961601 113.86203003 C848.40450738 100.7207794 848.40539707 87.57961352 848.3875451 74.43836474 C848.37880749 67.72983713 848.3769643 61.0214916 848.39219666 54.31296158 C848.40595733 48.17677803 848.40139214 42.0408966 848.38195742 35.90473092 C848.37817052 33.68005467 848.38119595 31.45535471 848.39156907 29.23069942 C848.40463334 26.21544781 848.39324974 23.2012554 848.37557125 20.18605042 C848.39004702 18.8790551 848.39004702 18.8790551 848.40481523 17.54565585 C848.33952581 12.15234058 847.45198198 9.09465745 843.875 4.8125 C841.2658613 2.48972584 841.2658613 2.48972584 838.875 0.8125 C841.515 0.8125 844.155 0.8125 846.875 0.8125 C846.875 1.4725 846.875 2.1325 846.875 2.8125 C847.535 2.8125 848.195 2.8125 848.875 2.8125 C850.58506472 6.23262943 850.0186006 10.15455022 850.0148077 13.91808891 C850.01775912 14.87819447 850.02071055 15.83830002 850.02375141 16.82749969 C850.03249223 20.081531 850.03402755 23.33552697 850.03562927 26.58956909 C850.04035682 28.93133191 850.04550726 31.2730939 850.05104691 33.61485493 C850.06352915 39.39945118 850.07125155 45.18404041 850.07694569 50.96864703 C850.08399483 57.89392841 850.09675304 64.81919637 850.10949489 71.74446919 C850.14137103 89.27931617 850.16118354 106.81417204 850.17878041 124.3490383 C850.1835465 129.09624782 850.18855543 133.84345706 850.19358563 138.59066629 C850.22462672 168.04161463 850.2512526 197.4925652 850.26800442 226.94352531 C850.27194184 233.76882812 850.27595365 240.59413087 850.2800293 247.41943359 C850.2807818 248.69140636 850.2807818 248.69140636 850.2815495 249.98907554 C850.29797598 277.49682226 850.336444 305.00448016 850.3873164 332.51218317 C850.43949306 360.77649786 850.47231234 389.04076524 850.47958195 417.30512908 C850.48061061 421.29391551 850.48184694 425.28270186 850.48320198 429.27148819 C850.48358904 430.44908836 850.48358904 430.44908836 850.48398391 431.65047843 C850.48868603 444.30466096 850.51365021 456.95872673 850.54595341 469.61286549 C850.57792649 482.32259661 850.58798478 495.03219573 850.57552146 507.7419623 C850.56936192 514.63255911 850.57294129 521.52282042 850.6036911 528.4133606 C850.63086588 534.71376958 850.63069715 541.01354668 850.60818065 547.31396855 C850.60493318 549.6006497 850.61196706 551.88737176 850.62997787 554.17398427 C850.65288661 557.26851664 850.63928909 560.36075046 850.61608028 563.45522881 C850.63155652 564.35541727 850.64703275 565.25560573 850.66297796 566.18307263 C850.62354437 568.5440907 850.53313993 570.54478616 849.875 572.8125 C844.68836617 577.45052344 840.43558627 577.40729497 833.75 577.19140625 C826.90311862 576.52190273 820.45105769 574.73303677 813.875 572.8125 C812.97958496 572.5551709 812.08416992 572.2978418 811.16162109 572.03271484 C806.07872331 570.57177756 801.00206378 569.09079588 795.9296875 567.59375 C790.56568213 566.01142758 785.19214613 564.46566983 779.8125 562.9375 C770.40400421 560.26147179 761.01255899 557.52768855 751.621521 554.79119873 C741.5427182 551.85606984 731.4425335 549.00479974 721.32666016 546.19995117 C715.68362276 544.62659817 710.07826657 542.97650202 704.5 541.1875 C698.83073483 539.37664912 693.13824548 537.79552769 687.375 536.3125 C681.11005205 534.69810457 674.92923793 532.94259258 668.76635742 530.96655273 C656.22115132 526.97785941 643.52479146 523.45341802 630.875 519.8125 C629.86646973 519.52197754 628.85793945 519.23145508 627.81884766 518.93212891 C619.75404578 516.61125015 611.68382847 514.31181659 603.59765625 512.06640625 C584.5441205 506.77312349 584.5441205 506.77312349 576.625 504.25 C568.10559847 501.53928133 559.51427568 499.10649879 550.91210938 496.67333984 C545.23027351 495.06287736 539.55305613 493.43622752 533.875 491.8125 C531.4635542 491.12365402 529.05209605 490.43485132 526.640625 489.74609375 C522.60885866 488.59424082 518.57748172 487.44106013 514.546875 486.28515625 C512.9062779 485.8150068 511.26565333 485.34495319 509.625 484.875 C508.81272949 484.64224365 508.00045898 484.4094873 507.16357422 484.16967773 C501.87190705 482.65741265 496.57435827 481.16696816 491.2734375 479.6875 C478.04846657 475.99367398 464.84292996 472.27155839 451.72705078 468.20214844 C447.40511776 466.86592137 443.08185638 465.57745655 438.7109375 464.41015625 C437.48383057 464.08192871 437.48383057 464.08192871 436.23193359 463.74707031 C434.72944504 463.35051543 433.22472742 462.96224791 431.71728516 462.58496094 C426.91335885 461.32070898 423.10397962 459.42807984 418.875 456.8125 C418.38193359 457.19849365 417.88886719 457.5844873 417.38085938 457.98217773 C410.80061397 462.77990183 404.19344393 464.83288094 396.375 466.875 C393.87358091 467.55816546 391.37227838 468.24175787 388.87109375 468.92578125 C387.6682373 469.24885254 386.46538086 469.57192383 385.22607422 469.90478516 C380.94487299 471.0644461 376.68870438 472.29801055 372.4375 473.5625 C370.67599609 474.08070313 370.67599609 474.08070313 368.87890625 474.609375 C366.5916044 475.28894227 364.31263834 475.98896037 362.03588867 476.70336914 C352.53443862 479.67623322 342.94483933 482.22200035 333.31054688 484.72460938 C326.22657072 486.58649424 319.21798491 488.60696391 312.23899841 490.8260498 C303.25935885 493.66618557 294.1866817 496.18684329 285.125 498.75 C272.7823684 502.24445126 260.4648633 505.80312432 248.18652344 509.51782227 C244.42593741 510.65315806 240.65509033 511.74393881 236.875 512.8125 C231.33608978 514.38023833 225.8229832 516.02342744 220.3125 517.6875 C212.55995506 520.02607152 204.78747913 522.28377916 196.99804688 524.49609375 C190.4274351 526.36378413 183.86820601 528.26819182 177.3125 530.1875 C167.64939511 533.01426535 157.97251819 535.79021935 148.28955078 538.5480957 C141.36424415 540.52306271 134.44356678 542.51301522 127.52734375 544.51953125 C126.72255585 544.7530127 125.91776794 544.98649414 125.08859253 545.22705078 C121.79943615 546.18148345 118.51033545 547.13610769 115.22131348 548.09100342 C104.24516706 551.27636563 93.26137587 554.42629973 82.23754883 557.44360352 C76.89181154 558.91888021 71.59251045 560.51342326 66.3046875 562.18359375 C58.29314863 564.71200722 50.23467549 567.05629705 42.15380859 569.35229492 C39.84789753 570.00770333 37.54304207 570.66673124 35.23828125 571.32617188 C33.7422475 571.75281461 32.24615586 572.17925443 30.75 572.60546875 C30.07590088 572.7981987 29.40180176 572.99092865 28.70727539 573.1894989 C26.76570235 573.74015702 24.82150289 574.27954336 22.875 574.8125 C22.19430954 575.00097 21.51361908 575.18944 20.81230164 575.38362122 C14.67330725 577.01398306 8.99556332 577.14426715 2.6875 577.125 C1.08745117 577.14916992 1.08745117 577.14916992 -0.54492188 577.17382812 C-2.09083008 577.17479492 -2.09083008 577.17479492 -3.66796875 577.17578125 C-5.0605188 577.18025269 -5.0605188 577.18025269 -6.48120117 577.18481445 C-9.90916877 576.70206899 -11.48217555 576.09810735 -14.125 573.8125 C-14.90661554 570.75644165 -14.79674845 567.72609384 -14.75699902 564.58665657 C-14.76456582 563.62569677 -14.77213262 562.66473696 -14.77992871 561.67465717 C-14.79932705 558.4233586 -14.78278053 555.17320839 -14.76664734 551.92190552 C-14.77311852 549.57998639 -14.78176853 547.23807243 -14.79242164 544.89616859 C-14.81293483 539.11494079 -14.81000453 533.3340498 -14.79735772 527.55280708 C-14.78349981 520.63078863 -14.79854347 513.70891104 -14.81448474 506.78690791 C-14.84473181 493.22316975 -14.84610499 479.65954222 -14.83513172 466.09578148 C-14.82555472 454.22490087 -14.82481967 442.35406279 -14.83301735 430.483181 C-14.83408313 428.8927213 -14.83514868 427.30226161 -14.83621398 425.71180191 C-14.837835 423.31530796 -14.83946729 420.91881402 -14.841127 418.5223201 C-14.8563912 396.23192744 -14.86187637 373.94154911 -14.84652996 351.65115547 C-14.84595119 350.81031498 -14.84537242 349.9694745 -14.84477612 349.103154 C-14.84001109 342.27432589 -14.83495329 335.445498 -14.82987839 328.61667012 C-14.81028575 301.97795266 -14.81948568 275.33938678 -14.85229492 248.70068359 C-14.88905447 218.79098369 -14.90617847 188.88137256 -14.89288265 158.97165 C-14.89152509 155.7842502 -14.89022503 152.59685037 -14.88895607 149.40945053 C-14.88862811 148.62459767 -14.88830014 147.83974482 -14.88796224 147.03110854 C-14.88337926 135.16762173 -14.89403982 123.30421056 -14.91220665 111.44073868 C-14.93280555 97.95276773 -14.93229738 84.46498599 -14.90357425 70.97702588 C-14.88946825 64.09036759 -14.88493238 57.20403157 -14.90752411 50.31738663 C-14.92721125 44.01940082 -14.91945648 37.72208209 -14.88932977 31.42414306 C-14.88329573 29.13950571 -14.88750194 26.85481494 -14.902693 24.57022013 C-14.92177606 21.47600649 -14.90428589 18.38412887 -14.87725353 15.29002571 C-14.89158638 14.39275011 -14.90591922 13.49547451 -14.92068639 12.57100874 C-14.81612282 6.73092155 -14.81612282 6.73092155 -12.87123016 4.14638625 C-8.8908742 0.62640918 -5.13645393 -0.07962637 0 0 Z M-9.125 4.8125 C-13.08639308 10.39674755 -13.70063464 14.54903272 -13.62557125 21.29348087 C-13.63108542 22.23343085 -13.63659958 23.17338083 -13.64228085 24.14181414 C-13.6558967 27.297451 -13.64096714 30.45230304 -13.62620544 33.60792542 C-13.63009754 35.89070877 -13.63573724 38.17348971 -13.64297634 40.45626491 C-13.65776184 46.73402207 -13.64753119 53.01152919 -13.63323963 59.28927839 C-13.62328997 65.36262739 -13.63209916 71.43592315 -13.64036357 77.50926972 C-13.65755832 90.69824231 -13.65201305 103.8871318 -13.63700638 117.07610269 C-13.62395903 128.61729546 -13.61875778 140.1584594 -13.62132454 151.69965935 C-13.62148495 152.46495719 -13.62164537 153.23025503 -13.62181065 154.01874372 C-13.62247422 157.12525895 -13.62317663 160.23177416 -13.62393599 163.33828936 C-13.63096116 192.48377817 -13.61546468 221.6292162 -13.58931253 250.77469208 C-13.5661949 276.67557564 -13.56081002 302.57640337 -13.57104492 328.47729492 C-13.57364688 335.11008228 -13.57623187 341.74286965 -13.57864285 348.37565708 C-13.57894029 349.19220121 -13.57923774 350.00874533 -13.5795442 350.85003322 C-13.58715664 372.48583674 -13.58074918 394.12163568 -13.56994683 415.75743717 C-13.56879901 418.08505928 -13.56765583 420.4126814 -13.56652 422.74030351 C-13.56576475 424.2844183 -13.56499911 425.82853308 -13.56422299 427.37264786 C-13.55856146 438.90801376 -13.55989676 450.44336521 -13.56445122 461.97873116 C-13.56955525 475.09250286 -13.56372279 488.20622046 -13.54355692 501.31997866 C-13.53352783 508.01430597 -13.52859876 514.708534 -13.53644943 521.40287209 C-13.5434835 527.52602336 -13.5367549 533.64899646 -13.5188458 539.77212416 C-13.51478654 541.99205744 -13.51582575 544.21200683 -13.52236467 546.43193419 C-13.53047121 549.44062485 -13.5202556 552.44870878 -13.50531673 555.45736027 C-13.51205439 556.32680028 -13.51879204 557.1962403 -13.52573386 558.09202698 C-13.46282749 564.60695164 -11.98116373 568.67791171 -7.625 573.6875 C-4.08794561 576.30406794 -0.99305961 576.5694072 3.3359375 576.359375 C10.72139065 575.218135 17.81683575 572.89897274 24.94677734 570.70654297 C29.90817786 569.1917315 34.8930583 567.75798965 39.875 566.3125 C41.90630379 565.71893404 43.9375541 565.12518506 45.96875 564.53125 C52.28561376 562.6888314 58.61272572 560.88334519 64.94140625 559.08203125 C71.59383987 557.18563615 78.23568065 555.25426773 84.875 553.3125 C93.22183812 550.871343 101.57714182 548.46272752 109.94140625 546.08203125 C116.59383987 544.18563615 123.23568065 542.25426773 129.875 540.3125 C138.22183812 537.871343 146.57714182 535.46272752 154.94140625 533.08203125 C161.59383987 531.18563615 168.23568065 529.25426773 174.875 527.3125 C182.36808239 525.12103657 189.86628229 522.94978347 197.375 520.8125 C210.17508863 517.16772486 222.95198374 513.44267816 235.71801758 509.68041992 C245.67889786 506.74521163 255.64822656 503.84026615 265.6237793 500.95532227 C268.07158649 500.24737202 270.519203 499.53876548 272.96679688 498.83007812 C280.09048248 496.76835934 287.21557971 494.71220761 294.34765625 492.6796875 C299.3454142 491.25459785 304.3333973 489.79947455 309.31762695 488.32788086 C318.9074453 485.49988938 328.5229763 482.81105615 338.1875 480.25 C346.40555783 478.06998216 354.52438357 475.72321899 362.60571289 473.08398438 C369.38361263 470.8997611 376.24133156 469.06907666 383.125 467.25 C393.9454613 464.38827657 393.9454613 464.38827657 404.6875 461.25 C405.78707031 460.91871094 406.88664062 460.58742188 408.01953125 460.24609375 C412.22050311 458.13698749 414.75570505 455.05108991 416.875 450.8125 C416.97278886 449.05673637 417.00600248 447.29723531 417.00922108 445.53875351 C417.01590784 443.8506255 417.01590784 443.8506255 417.02272969 442.12839389 C417.02254533 440.88153599 417.02236097 439.63467809 417.02217102 438.35003662 C417.02768605 436.37534232 417.02768605 436.37534232 417.0333125 434.36075521 C417.04334974 430.69414773 417.04705206 427.02755663 417.04970181 423.36093736 C417.05359977 419.41125683 417.06317845 415.46158934 417.07191467 411.51191711 C417.09169357 401.96722162 417.10174713 392.42252504 417.11064246 382.87781417 C417.11502306 378.38573822 417.12039046 373.89366345 417.12563133 369.40158844 C417.14264509 354.4734611 417.15713996 339.5453345 417.16438007 324.61719894 C417.16629005 320.74170684 417.16821037 316.86621474 417.17016602 312.99072266 C417.17064976 312.02745895 417.1711335 311.06419524 417.1716319 310.07174173 C417.17993475 294.46245747 417.2052753 278.85324979 417.23774669 263.24399897 C417.27079509 247.22710937 417.28882683 231.21025871 417.29202431 215.19333482 C417.29419148 206.19685257 417.30297026 197.20048197 417.32848549 188.2040329 C417.3501622 180.54319784 417.35825789 172.88250155 417.34851871 165.22163931 C417.34396515 161.31200916 417.34592106 157.40266551 417.36528015 153.49307442 C417.38284997 149.91395836 417.38196503 146.3353391 417.36638286 142.75621822 C417.36286711 140.84798312 417.37907924 138.93974317 417.39598733 137.03157973 C417.34803825 130.68457694 417.2538944 126.58509345 412.875 121.8125 C408.73039765 118.59205697 403.83469278 117.42001811 398.859375 115.99609375 C397.98061707 115.73871933 397.10185913 115.48134491 396.19647217 115.21617126 C393.42487159 114.40703656 390.65035689 113.60864583 387.875 112.8125 C386.14778559 112.31396787 384.42057202 111.81543278 382.69335938 111.31689453 C378.39435395 110.07998357 374.09234817 108.85385659 369.78912354 107.63171387 C365.19445182 106.32664984 360.60112938 105.01685441 356.0078125 103.70703125 C355.11516693 103.45255219 354.22252136 103.19807312 353.30282593 102.93588257 C345.60700459 100.74006667 337.92278091 98.50594028 330.24316406 96.25415039 C321.61036051 93.72610429 312.95983483 91.26133156 304.30883789 88.79638672 C295.68310171 86.3359797 287.06962013 83.83574513 278.4609375 81.31640625 C272.10555977 79.45815829 265.74348935 77.62527382 259.375 75.8125 C246.83655261 72.2421456 234.32599824 68.57695467 221.81347656 64.91699219 C210.4876505 61.60502963 199.15721262 58.31227769 187.80786133 55.08178711 C180.13409728 52.89434829 172.47500208 50.65783905 164.81640625 48.41796875 C158.34234412 46.52657608 151.86203292 44.65888532 145.375 42.8125 C136.84456447 40.38450693 128.32903217 37.90761286 119.81640625 35.41796875 C113.34234412 33.52657608 106.86203292 31.65888532 100.375 29.8125 C91.84456447 27.38450693 83.32903217 24.90761286 74.81640625 22.41796875 C67.49076903 20.27778902 60.15572942 18.1726255 52.81518555 16.08422852 C47.12895764 14.46381201 41.45105336 12.81658458 35.77685547 11.15454102 C31.75872988 9.9780628 27.73879449 8.80787114 23.71826172 7.63964844 C21.86516281 7.10055355 20.01259539 6.55962727 18.16064453 6.01660156 C15.6926557 5.29473922 13.22189359 4.5833566 10.75 3.875 C9.67649292 3.55776978 9.67649292 3.55776978 8.58129883 3.23413086 C1.87245036 1.33405825 -3.1798891 0.80601222 -9.125 4.8125 Z " fill="#FCF8F8" transform="translate(14.125,-0.8124999999999999)"/>
<path d="M0 0 C-8.82565592 4.68501623 -18.95027383 6.87602466 -28.5625 9.375 C-36.35288125 11.43328558 -44.08635014 13.57193738 -51.75 16.0625 C-58.35172249 18.20625625 -64.98370463 20.13771988 -71.6875 21.9375 C-86.39049297 25.88608929 -101.00052883 30.13987252 -115.54785156 34.62792969 C-125.93017597 37.83049124 -136.35486599 40.77982286 -146.87060547 43.515625 C-151.97162107 44.85540007 -156.99112633 46.29511935 -161.984375 47.99609375 C-168.10797486 50.08122268 -174.30411481 51.7479712 -180.5625 53.375 C-188.27075067 55.41130658 -195.92095635 57.52442879 -203.5 60 C-212.04648962 62.7894339 -220.69622433 65.09911808 -229.38671875 67.39453125 C-235.81635247 69.10558266 -242.17519037 70.93610749 -248.5 73 C-255.91706177 75.41820299 -263.3969988 77.50111596 -270.9375 79.5 C-278.39039547 81.47576222 -285.81593925 83.48872066 -293.1875 85.75 C-303.1632795 88.80580707 -313.20571961 91.61734509 -323.25 94.4375 C-337.05980959 98.31603511 -350.84757176 102.25635272 -364.60986328 106.30078125 C-370.06478518 107.89658271 -375.53189617 109.45006212 -381 111 C-381 110.01 -381 109.02 -381 108 C-374.29262688 105.31379475 -367.4865032 103.44472387 -360.5 101.625 C-351.90787101 99.35140334 -343.40912975 96.95059012 -334.9453125 94.23828125 C-323.67552211 90.65558318 -312.22418931 87.61846407 -300.83544922 84.44091797 C-288.54010857 81.00997058 -276.27612393 77.48329339 -264.02783203 73.88818359 C-258.81164827 72.35806938 -253.59337944 70.83510625 -248.375 69.3125 C-247.36421387 69.01746582 -246.35342773 68.72243164 -245.31201172 68.41845703 C-238.99674654 66.57689684 -232.67515421 64.76000739 -226.34765625 62.9609375 C-222.39291137 61.82573652 -218.44619494 60.66450838 -214.5 59.5 C-209.48508725 58.02011672 -204.46693501 56.55499732 -199.4375 55.125 C-193.30493063 53.37979035 -187.182856 51.60004687 -181.0625 49.8125 C-171.62647615 47.05741819 -162.18949144 44.30567888 -152.75 41.5625 C-152.09758331 41.37283661 -151.44516663 41.18317322 -150.77297974 40.98776245 C-140.1985687 37.91478848 -129.60978637 34.89426504 -119.0168457 31.88574219 C-110.67906702 29.50675157 -102.38769443 26.99511666 -94.10327148 24.4375 C-87.34857351 22.36848268 -80.55543845 20.52683198 -73.71313477 18.77270508 C-67.3804457 17.13648534 -61.15965419 15.22897911 -54.9296875 13.2421875 C-50.28552969 11.76334738 -45.6144402 10.38181976 -40.93286133 9.02661133 C-36.58884269 7.7685237 -32.26155379 6.46694539 -27.94140625 5.12890625 C-25.81511596 4.48173207 -23.68881394 3.83459646 -21.5625 3.1875 C-20.07073242 2.71594482 -20.07073242 2.71594482 -18.54882812 2.23486328 C-12.2111127 0.32612992 -6.61299031 -0.41608808 0 0 Z " fill="#F8F9FF" transform="translate(843,0)"/>
</svg>
